# xmcd
#
# Track frame offsets:
#	150
#	11410
#	24951
#	37882
#	51403
#	64455
#	79920
#	92152
#	105386
#	116607
#	130123
#	141644
#	158792
#	168419
#
# Disc length: 2455 seconds
#
# Revision: 1
# Processed by: cddbd v1.5.2PL0 Copyright (c) Steve Scherf et al.
# Submitted via: EZCDAudioConverter 8.2.2.1
#
DISCID=b709950e
DTITLE=ALTEMAR DUTRA - A VOLTA DO SERESTEIRO [CD 0355-2) SOM LIVRE - CD 2
DYEAR=2006
DGENRE=Salsa
TTITLE0=SENTIMENTAL DEMAIS (BY GILMAR SINISTRO)
TTITLE1=SOMBRAS (BY GILMAR SINISTRO)
TTITLE2=SOMOS IGUAIS (BY GILMAR SINISTRO)
TTITLE3=TUDO ACABADO (BY GILMAR SINISTRO)
TTITLE4=VENHA VER O QUE RESTOU DE MIM (BY GILMAR SINISTRO)
TTITLE5=VIDA ROUBADA (BY GILMAR SINISTRO)
TTITLE6=PRECISO APRENDER A SER SÓ (BY GILMAR SINISTRO)
TTITLE7=MEU VELHO (MI VIEJO) (BY GILMAR SINISTRO)
TTITLE8=LA PALOMA (BY GILMAR SINISTRO)
TTITLE9=DANÇANDO COM LÁGRIMAS NOS OLHOS (DANCING WITH TEARS IN MY EYES) (BY GI
TTITLE9=LMAR SINISTRO)
TTITLE10=CREIO EM TI (I BELIEVE) (BY GILMAR SINISTRO)
TTITLE11=CONCERTO PARA UM VERÃO (CONCERTO POUR UN ETE) (BY GILMAR SINISTRO)
TTITLE12=BLOCO DA SOLIDÃO (BY GILMAR SINISTRO)
TTITLE13=A LENDA DO BEIJO (LEYENDA DEL BESO) (BY GILMAR SINISTRO)
EXTD=
EXTT0=
EXTT1=
EXTT2=
EXTT3=
EXTT4=
EXTT5=
EXTT6=
EXTT7=
EXTT8=
EXTT9=
EXTT10=
EXTT11=
EXTT12=
EXTT13=
PLAYORDER=
